<mxfile host="app.diagrams.net" agent="Mozilla/5.0 (Macintosh; Intel Mac OS X 10_15_7) AppleWebKit/537.36 (KHTML, like Gecko) Chrome/130.0.0.0 YaBrowser/24.12.0.0 Safari/537.36" version="26.0.4">
  <diagram id="C5RBs43oDa-KdzZeNtuy" name="Page-1">
    <mxGraphModel dx="954" dy="651" grid="1" gridSize="10" guides="1" tooltips="1" connect="1" arrows="1" fold="1" page="1" pageScale="1" pageWidth="827" pageHeight="1169" math="0" shadow="0">
      <root>
        <mxCell id="WIyWlLk6GJQsqaUBKTNV-0" />
        <mxCell id="WIyWlLk6GJQsqaUBKTNV-1" parent="WIyWlLk6GJQsqaUBKTNV-0" />
        <mxCell id="9g6PCNSL1OcQ4zxGsmFJ-1" value="Query for filter" style="swimlane;fontStyle=0;childLayout=stackLayout;horizontal=1;startSize=30;horizontalStack=0;resizeParent=1;resizeParentMax=0;resizeLast=0;collapsible=1;marginBottom=0;whiteSpace=wrap;html=1;fillColor=#dae8fc;strokeColor=#6c8ebf;" vertex="1" parent="WIyWlLk6GJQsqaUBKTNV-1">
          <mxGeometry x="20" y="160" width="140" height="120" as="geometry" />
        </mxCell>
        <mxCell id="9g6PCNSL1OcQ4zxGsmFJ-2" value="&lt;font&gt;Output:&lt;/font&gt;" style="text;strokeColor=none;fillColor=none;align=left;verticalAlign=middle;spacingLeft=4;spacingRight=4;overflow=hidden;points=[[0,0.5],[1,0.5]];portConstraint=eastwest;rotatable=0;whiteSpace=wrap;html=1;fontColor=#000000;" vertex="1" parent="9g6PCNSL1OcQ4zxGsmFJ-1">
          <mxGeometry y="30" width="140" height="30" as="geometry" />
        </mxCell>
        <mxCell id="9g6PCNSL1OcQ4zxGsmFJ-23" value="&lt;font style=&quot;color: rgb(0, 0, 204);&quot;&gt;data&lt;/font&gt;: &lt;font style=&quot;color: rgb(0, 153, 0);&quot;&gt;object&lt;/font&gt;" style="text;strokeColor=none;fillColor=none;align=left;verticalAlign=middle;spacingLeft=4;spacingRight=4;overflow=hidden;points=[[0,0.5],[1,0.5]];portConstraint=eastwest;rotatable=0;whiteSpace=wrap;html=1;" vertex="1" parent="9g6PCNSL1OcQ4zxGsmFJ-1">
          <mxGeometry y="60" width="140" height="30" as="geometry" />
        </mxCell>
        <mxCell id="9g6PCNSL1OcQ4zxGsmFJ-60" style="edgeStyle=orthogonalEdgeStyle;rounded=0;orthogonalLoop=1;jettySize=auto;html=1;strokeColor=#7EA6E0;entryX=0;entryY=0.5;entryDx=0;entryDy=0;" edge="1" parent="9g6PCNSL1OcQ4zxGsmFJ-1" target="9g6PCNSL1OcQ4zxGsmFJ-18">
          <mxGeometry relative="1" as="geometry">
            <mxPoint x="220" y="105" as="targetPoint" />
            <mxPoint x="140" y="105" as="sourcePoint" />
          </mxGeometry>
        </mxCell>
        <mxCell id="9g6PCNSL1OcQ4zxGsmFJ-3" value="&lt;font style=&quot;color: rgb(0, 0, 204);&quot;&gt;loading&lt;/font&gt;: &lt;font style=&quot;color: rgb(0, 153, 0);&quot;&gt;boolean&lt;/font&gt;" style="text;strokeColor=none;fillColor=none;align=left;verticalAlign=middle;spacingLeft=4;spacingRight=4;overflow=hidden;points=[[0,0.5],[1,0.5]];portConstraint=eastwest;rotatable=0;whiteSpace=wrap;html=1;" vertex="1" parent="9g6PCNSL1OcQ4zxGsmFJ-1">
          <mxGeometry y="90" width="140" height="30" as="geometry" />
        </mxCell>
        <mxCell id="9g6PCNSL1OcQ4zxGsmFJ-5" value="Query for rows" style="swimlane;fontStyle=0;childLayout=stackLayout;horizontal=1;startSize=30;horizontalStack=0;resizeParent=1;resizeParentMax=0;resizeLast=0;collapsible=1;marginBottom=0;whiteSpace=wrap;html=1;fillColor=#dae8fc;strokeColor=#6c8ebf;" vertex="1" parent="WIyWlLk6GJQsqaUBKTNV-1">
          <mxGeometry x="20" y="20" width="140" height="120" as="geometry" />
        </mxCell>
        <mxCell id="9g6PCNSL1OcQ4zxGsmFJ-24" value="&lt;font&gt;Output:&lt;/font&gt;" style="text;strokeColor=none;fillColor=none;align=left;verticalAlign=middle;spacingLeft=4;spacingRight=4;overflow=hidden;points=[[0,0.5],[1,0.5]];portConstraint=eastwest;rotatable=0;whiteSpace=wrap;html=1;fontColor=#000000;" vertex="1" parent="9g6PCNSL1OcQ4zxGsmFJ-5">
          <mxGeometry y="30" width="140" height="30" as="geometry" />
        </mxCell>
        <mxCell id="9g6PCNSL1OcQ4zxGsmFJ-6" value="&lt;font style=&quot;color: rgb(0, 0, 204);&quot;&gt;data&lt;/font&gt;: &lt;font style=&quot;color: rgb(0, 153, 0);&quot;&gt;object[]&lt;/font&gt;" style="text;strokeColor=none;fillColor=none;align=left;verticalAlign=middle;spacingLeft=4;spacingRight=4;overflow=hidden;points=[[0,0.5],[1,0.5]];portConstraint=eastwest;rotatable=0;whiteSpace=wrap;html=1;" vertex="1" parent="9g6PCNSL1OcQ4zxGsmFJ-5">
          <mxGeometry y="60" width="140" height="30" as="geometry" />
        </mxCell>
        <mxCell id="9g6PCNSL1OcQ4zxGsmFJ-7" value="&lt;font style=&quot;color: rgb(0, 0, 204);&quot;&gt;loading&lt;/font&gt;: &lt;font style=&quot;color: rgb(0, 153, 0);&quot;&gt;boolean&lt;/font&gt;" style="text;strokeColor=none;fillColor=none;align=left;verticalAlign=middle;spacingLeft=4;spacingRight=4;overflow=hidden;points=[[0,0.5],[1,0.5]];portConstraint=eastwest;rotatable=0;whiteSpace=wrap;html=1;" vertex="1" parent="9g6PCNSL1OcQ4zxGsmFJ-5">
          <mxGeometry y="90" width="140" height="30" as="geometry" />
        </mxCell>
        <mxCell id="9g6PCNSL1OcQ4zxGsmFJ-9" value="TableGrid" style="swimlane;fontStyle=0;childLayout=stackLayout;horizontal=1;startSize=30;horizontalStack=0;resizeParent=1;resizeParentMax=0;resizeLast=0;collapsible=1;marginBottom=0;whiteSpace=wrap;html=1;fillColor=#d5e8d4;strokeColor=#82b366;" vertex="1" parent="WIyWlLk6GJQsqaUBKTNV-1">
          <mxGeometry x="580" y="300" width="140" height="160" as="geometry" />
        </mxCell>
        <mxCell id="9g6PCNSL1OcQ4zxGsmFJ-27" value="&lt;font&gt;Input:&lt;/font&gt;" style="text;strokeColor=none;fillColor=none;align=left;verticalAlign=middle;spacingLeft=4;spacingRight=4;overflow=hidden;points=[[0,0.5],[1,0.5]];portConstraint=eastwest;rotatable=0;whiteSpace=wrap;html=1;fontColor=#000000;" vertex="1" parent="9g6PCNSL1OcQ4zxGsmFJ-9">
          <mxGeometry y="30" width="140" height="30" as="geometry" />
        </mxCell>
        <mxCell id="9g6PCNSL1OcQ4zxGsmFJ-10" value="&lt;font style=&quot;color: rgb(0, 0, 204);&quot;&gt;rows&lt;/font&gt;:&amp;nbsp;&lt;span style=&quot;color: rgb(0, 153, 0);&quot;&gt;object[]&lt;/span&gt;" style="text;strokeColor=none;fillColor=none;align=left;verticalAlign=middle;spacingLeft=4;spacingRight=4;overflow=hidden;points=[[0,0.5],[1,0.5]];portConstraint=eastwest;rotatable=0;whiteSpace=wrap;html=1;" vertex="1" parent="9g6PCNSL1OcQ4zxGsmFJ-9">
          <mxGeometry y="60" width="140" height="30" as="geometry" />
        </mxCell>
        <mxCell id="9g6PCNSL1OcQ4zxGsmFJ-11" value="&lt;font style=&quot;color: rgb(0, 0, 204);&quot;&gt;loading&lt;/font&gt;: &lt;font style=&quot;color: rgb(0, 153, 0);&quot;&gt;boolean&lt;/font&gt;" style="text;strokeColor=none;fillColor=none;align=left;verticalAlign=middle;spacingLeft=4;spacingRight=4;overflow=hidden;points=[[0,0.5],[1,0.5]];portConstraint=eastwest;rotatable=0;whiteSpace=wrap;html=1;" vertex="1" parent="9g6PCNSL1OcQ4zxGsmFJ-9">
          <mxGeometry y="90" width="140" height="30" as="geometry" />
        </mxCell>
        <mxCell id="9g6PCNSL1OcQ4zxGsmFJ-28" value="" style="line;strokeWidth=1;html=1;fillColor=#d5e8d4;strokeColor=#82b366;" vertex="1" parent="9g6PCNSL1OcQ4zxGsmFJ-9">
          <mxGeometry y="120" width="140" height="10" as="geometry" />
        </mxCell>
        <mxCell id="9g6PCNSL1OcQ4zxGsmFJ-29" value="&lt;font&gt;Output:&lt;/font&gt;" style="text;strokeColor=none;fillColor=none;align=left;verticalAlign=middle;spacingLeft=4;spacingRight=4;overflow=hidden;points=[[0,0.5],[1,0.5]];portConstraint=eastwest;rotatable=0;whiteSpace=wrap;html=1;fontColor=#000000;" vertex="1" parent="9g6PCNSL1OcQ4zxGsmFJ-9">
          <mxGeometry y="130" width="140" height="30" as="geometry" />
        </mxCell>
        <mxCell id="9g6PCNSL1OcQ4zxGsmFJ-16" value="Filters" style="swimlane;fontStyle=0;childLayout=stackLayout;horizontal=1;startSize=30;horizontalStack=0;resizeParent=1;resizeParentMax=0;resizeLast=0;collapsible=1;marginBottom=0;whiteSpace=wrap;html=1;fillColor=#d5e8d4;strokeColor=#82b366;" vertex="1" parent="WIyWlLk6GJQsqaUBKTNV-1">
          <mxGeometry x="220" y="160" width="140" height="190" as="geometry" />
        </mxCell>
        <mxCell id="9g6PCNSL1OcQ4zxGsmFJ-25" value="&lt;font&gt;Input:&lt;/font&gt;" style="text;strokeColor=none;fillColor=none;align=left;verticalAlign=middle;spacingLeft=4;spacingRight=4;overflow=hidden;points=[[0,0.5],[1,0.5]];portConstraint=eastwest;rotatable=0;whiteSpace=wrap;html=1;fontColor=#000000;" vertex="1" parent="9g6PCNSL1OcQ4zxGsmFJ-16">
          <mxGeometry y="30" width="140" height="30" as="geometry" />
        </mxCell>
        <mxCell id="9g6PCNSL1OcQ4zxGsmFJ-17" value="&lt;font style=&quot;color: rgb(0, 0, 204);&quot;&gt;data&lt;/font&gt;:&amp;nbsp;&lt;span style=&quot;color: rgb(0, 153, 0);&quot;&gt;object[]&lt;/span&gt;" style="text;strokeColor=none;fillColor=none;align=left;verticalAlign=middle;spacingLeft=4;spacingRight=4;overflow=hidden;points=[[0,0.5],[1,0.5]];portConstraint=eastwest;rotatable=0;whiteSpace=wrap;html=1;" vertex="1" parent="9g6PCNSL1OcQ4zxGsmFJ-16">
          <mxGeometry y="60" width="140" height="30" as="geometry" />
        </mxCell>
        <mxCell id="9g6PCNSL1OcQ4zxGsmFJ-18" value="&lt;font style=&quot;color: rgb(0, 0, 204);&quot;&gt;loading&lt;/font&gt;: &lt;font style=&quot;color: rgb(0, 153, 0);&quot;&gt;boolean&lt;/font&gt;" style="text;strokeColor=none;fillColor=none;align=left;verticalAlign=middle;spacingLeft=4;spacingRight=4;overflow=hidden;points=[[0,0.5],[1,0.5]];portConstraint=eastwest;rotatable=0;whiteSpace=wrap;html=1;" vertex="1" parent="9g6PCNSL1OcQ4zxGsmFJ-16">
          <mxGeometry y="90" width="140" height="30" as="geometry" />
        </mxCell>
        <mxCell id="9g6PCNSL1OcQ4zxGsmFJ-21" value="" style="line;strokeWidth=1;html=1;fillColor=#d5e8d4;strokeColor=#82b366;" vertex="1" parent="9g6PCNSL1OcQ4zxGsmFJ-16">
          <mxGeometry y="120" width="140" height="10" as="geometry" />
        </mxCell>
        <mxCell id="9g6PCNSL1OcQ4zxGsmFJ-26" value="&lt;font&gt;Output:&lt;/font&gt;" style="text;strokeColor=none;fillColor=none;align=left;verticalAlign=middle;spacingLeft=4;spacingRight=4;overflow=hidden;points=[[0,0.5],[1,0.5]];portConstraint=eastwest;rotatable=0;whiteSpace=wrap;html=1;fontColor=#000000;" vertex="1" parent="9g6PCNSL1OcQ4zxGsmFJ-16">
          <mxGeometry y="130" width="140" height="30" as="geometry" />
        </mxCell>
        <mxCell id="9g6PCNSL1OcQ4zxGsmFJ-19" value="&lt;font style=&quot;color: rgb(0, 0, 204);&quot;&gt;filters&lt;/font&gt;:&amp;nbsp;&lt;span style=&quot;color: rgb(0, 153, 0);&quot;&gt;object[]&lt;/span&gt;" style="text;strokeColor=none;fillColor=none;align=left;verticalAlign=middle;spacingLeft=4;spacingRight=4;overflow=hidden;points=[[0,0.5],[1,0.5]];portConstraint=eastwest;rotatable=0;whiteSpace=wrap;html=1;" vertex="1" parent="9g6PCNSL1OcQ4zxGsmFJ-16">
          <mxGeometry y="160" width="140" height="30" as="geometry" />
        </mxCell>
        <mxCell id="9g6PCNSL1OcQ4zxGsmFJ-38" value="FiltersHandler" style="swimlane;fontStyle=0;childLayout=stackLayout;horizontal=1;startSize=30;horizontalStack=0;resizeParent=1;resizeParentMax=0;resizeLast=0;collapsible=1;marginBottom=0;whiteSpace=wrap;html=1;fillColor=#fff2cc;strokeColor=#d6b656;" vertex="1" parent="WIyWlLk6GJQsqaUBKTNV-1">
          <mxGeometry x="400" y="160" width="140" height="190" as="geometry" />
        </mxCell>
        <mxCell id="9g6PCNSL1OcQ4zxGsmFJ-39" value="Input:" style="text;strokeColor=none;fillColor=none;align=left;verticalAlign=middle;spacingLeft=4;spacingRight=4;overflow=hidden;points=[[0,0.5],[1,0.5]];portConstraint=eastwest;rotatable=0;whiteSpace=wrap;html=1;" vertex="1" parent="9g6PCNSL1OcQ4zxGsmFJ-38">
          <mxGeometry y="30" width="140" height="30" as="geometry" />
        </mxCell>
        <mxCell id="9g6PCNSL1OcQ4zxGsmFJ-41" value="&lt;font style=&quot;color: rgb(0, 0, 204);&quot;&gt;data&lt;/font&gt;:&amp;nbsp;&lt;font style=&quot;color: rgb(0, 153, 0);&quot;&gt;object[]&lt;/font&gt;" style="text;strokeColor=none;fillColor=none;align=left;verticalAlign=middle;spacingLeft=4;spacingRight=4;overflow=hidden;points=[[0,0.5],[1,0.5]];portConstraint=eastwest;rotatable=0;whiteSpace=wrap;html=1;" vertex="1" parent="9g6PCNSL1OcQ4zxGsmFJ-38">
          <mxGeometry y="60" width="140" height="30" as="geometry" />
        </mxCell>
        <mxCell id="9g6PCNSL1OcQ4zxGsmFJ-40" value="&lt;font style=&quot;color: rgb(0, 0, 204);&quot;&gt;filters&lt;/font&gt;:&amp;nbsp;&lt;span style=&quot;color: rgb(0, 153, 0);&quot;&gt;object[]&lt;/span&gt;" style="text;strokeColor=none;fillColor=none;align=left;verticalAlign=middle;spacingLeft=4;spacingRight=4;overflow=hidden;points=[[0,0.5],[1,0.5]];portConstraint=eastwest;rotatable=0;whiteSpace=wrap;html=1;" vertex="1" parent="9g6PCNSL1OcQ4zxGsmFJ-38">
          <mxGeometry y="90" width="140" height="30" as="geometry" />
        </mxCell>
        <mxCell id="9g6PCNSL1OcQ4zxGsmFJ-44" value="" style="line;strokeWidth=1;html=1;fillColor=#fff2cc;strokeColor=#d6b656;" vertex="1" parent="9g6PCNSL1OcQ4zxGsmFJ-38">
          <mxGeometry y="120" width="140" height="10" as="geometry" />
        </mxCell>
        <mxCell id="9g6PCNSL1OcQ4zxGsmFJ-45" value="&lt;font&gt;Output:&lt;/font&gt;" style="text;strokeColor=none;fillColor=none;align=left;verticalAlign=middle;spacingLeft=4;spacingRight=4;overflow=hidden;points=[[0,0.5],[1,0.5]];portConstraint=eastwest;rotatable=0;whiteSpace=wrap;html=1;fontColor=#000000;" vertex="1" parent="9g6PCNSL1OcQ4zxGsmFJ-38">
          <mxGeometry y="130" width="140" height="30" as="geometry" />
        </mxCell>
        <mxCell id="9g6PCNSL1OcQ4zxGsmFJ-46" value="&lt;font style=&quot;color: rgb(0, 0, 204);&quot;&gt;rows&lt;/font&gt;:&amp;nbsp;&lt;span style=&quot;color: rgb(0, 153, 0);&quot;&gt;object[]&lt;/span&gt;" style="text;strokeColor=none;fillColor=none;align=left;verticalAlign=middle;spacingLeft=4;spacingRight=4;overflow=hidden;points=[[0,0.5],[1,0.5]];portConstraint=eastwest;rotatable=0;whiteSpace=wrap;html=1;" vertex="1" parent="9g6PCNSL1OcQ4zxGsmFJ-38">
          <mxGeometry y="160" width="140" height="30" as="geometry" />
        </mxCell>
        <mxCell id="9g6PCNSL1OcQ4zxGsmFJ-47" value="Query for filter" style="swimlane;fontStyle=0;childLayout=stackLayout;horizontal=1;startSize=30;horizontalStack=0;resizeParent=1;resizeParentMax=0;resizeLast=0;collapsible=1;marginBottom=0;whiteSpace=wrap;html=1;fillColor=#dae8fc;strokeColor=#6c8ebf;" vertex="1" parent="WIyWlLk6GJQsqaUBKTNV-1">
          <mxGeometry x="20" y="300" width="140" height="120" as="geometry" />
        </mxCell>
        <mxCell id="9g6PCNSL1OcQ4zxGsmFJ-48" value="&lt;font&gt;Output:&lt;/font&gt;" style="text;strokeColor=none;fillColor=none;align=left;verticalAlign=middle;spacingLeft=4;spacingRight=4;overflow=hidden;points=[[0,0.5],[1,0.5]];portConstraint=eastwest;rotatable=0;whiteSpace=wrap;html=1;fontColor=#000000;" vertex="1" parent="9g6PCNSL1OcQ4zxGsmFJ-47">
          <mxGeometry y="30" width="140" height="30" as="geometry" />
        </mxCell>
        <mxCell id="9g6PCNSL1OcQ4zxGsmFJ-49" value="&lt;font style=&quot;color: rgb(0, 0, 204);&quot;&gt;data&lt;/font&gt;: &lt;font style=&quot;color: rgb(0, 153, 0);&quot;&gt;object&lt;/font&gt;" style="text;strokeColor=none;fillColor=none;align=left;verticalAlign=middle;spacingLeft=4;spacingRight=4;overflow=hidden;points=[[0,0.5],[1,0.5]];portConstraint=eastwest;rotatable=0;whiteSpace=wrap;html=1;" vertex="1" parent="9g6PCNSL1OcQ4zxGsmFJ-47">
          <mxGeometry y="60" width="140" height="30" as="geometry" />
        </mxCell>
        <mxCell id="9g6PCNSL1OcQ4zxGsmFJ-50" value="&lt;font style=&quot;color: rgb(0, 0, 204);&quot;&gt;loading&lt;/font&gt;: &lt;font style=&quot;color: rgb(0, 153, 0);&quot;&gt;boolean&lt;/font&gt;" style="text;strokeColor=none;fillColor=none;align=left;verticalAlign=middle;spacingLeft=4;spacingRight=4;overflow=hidden;points=[[0,0.5],[1,0.5]];portConstraint=eastwest;rotatable=0;whiteSpace=wrap;html=1;" vertex="1" parent="9g6PCNSL1OcQ4zxGsmFJ-47">
          <mxGeometry y="90" width="140" height="30" as="geometry" />
        </mxCell>
        <mxCell id="9g6PCNSL1OcQ4zxGsmFJ-53" style="edgeStyle=orthogonalEdgeStyle;rounded=0;orthogonalLoop=1;jettySize=auto;html=1;exitX=1;exitY=0.5;exitDx=0;exitDy=0;entryX=0;entryY=0.5;entryDx=0;entryDy=0;strokeColor=#67AB9F;" edge="1" parent="WIyWlLk6GJQsqaUBKTNV-1" source="9g6PCNSL1OcQ4zxGsmFJ-46" target="9g6PCNSL1OcQ4zxGsmFJ-10">
          <mxGeometry relative="1" as="geometry">
            <Array as="points">
              <mxPoint x="560" y="335" />
              <mxPoint x="560" y="375" />
            </Array>
          </mxGeometry>
        </mxCell>
        <mxCell id="9g6PCNSL1OcQ4zxGsmFJ-56" style="edgeStyle=orthogonalEdgeStyle;rounded=0;orthogonalLoop=1;jettySize=auto;html=1;exitX=1;exitY=0.5;exitDx=0;exitDy=0;entryX=0;entryY=0.5;entryDx=0;entryDy=0;strokeColor=#67AB9F;" edge="1" parent="WIyWlLk6GJQsqaUBKTNV-1" source="9g6PCNSL1OcQ4zxGsmFJ-6" target="9g6PCNSL1OcQ4zxGsmFJ-41">
          <mxGeometry relative="1" as="geometry">
            <Array as="points">
              <mxPoint x="380" y="95" />
              <mxPoint x="380" y="235" />
            </Array>
          </mxGeometry>
        </mxCell>
        <mxCell id="9g6PCNSL1OcQ4zxGsmFJ-57" style="edgeStyle=orthogonalEdgeStyle;rounded=0;orthogonalLoop=1;jettySize=auto;html=1;exitX=1;exitY=0.5;exitDx=0;exitDy=0;entryX=0;entryY=0.5;entryDx=0;entryDy=0;strokeColor=#67AB9F;" edge="1" parent="WIyWlLk6GJQsqaUBKTNV-1" source="9g6PCNSL1OcQ4zxGsmFJ-23" target="9g6PCNSL1OcQ4zxGsmFJ-17">
          <mxGeometry relative="1" as="geometry" />
        </mxCell>
        <mxCell id="9g6PCNSL1OcQ4zxGsmFJ-58" style="edgeStyle=orthogonalEdgeStyle;rounded=0;orthogonalLoop=1;jettySize=auto;html=1;exitX=1;exitY=0.5;exitDx=0;exitDy=0;entryX=0;entryY=0.5;entryDx=0;entryDy=0;strokeColor=#67AB9F;" edge="1" parent="WIyWlLk6GJQsqaUBKTNV-1" source="9g6PCNSL1OcQ4zxGsmFJ-49" target="9g6PCNSL1OcQ4zxGsmFJ-17">
          <mxGeometry relative="1" as="geometry">
            <Array as="points">
              <mxPoint x="200" y="375" />
              <mxPoint x="200" y="235" />
            </Array>
          </mxGeometry>
        </mxCell>
        <mxCell id="9g6PCNSL1OcQ4zxGsmFJ-62" style="edgeStyle=orthogonalEdgeStyle;rounded=0;orthogonalLoop=1;jettySize=auto;html=1;exitX=1;exitY=0.5;exitDx=0;exitDy=0;entryX=0;entryY=0.5;entryDx=0;entryDy=0;strokeColor=#67AB9F;" edge="1" parent="WIyWlLk6GJQsqaUBKTNV-1" source="9g6PCNSL1OcQ4zxGsmFJ-19" target="9g6PCNSL1OcQ4zxGsmFJ-40">
          <mxGeometry relative="1" as="geometry">
            <Array as="points">
              <mxPoint x="380" y="335" />
              <mxPoint x="380" y="265" />
            </Array>
          </mxGeometry>
        </mxCell>
        <mxCell id="9g6PCNSL1OcQ4zxGsmFJ-63" style="edgeStyle=orthogonalEdgeStyle;rounded=0;orthogonalLoop=1;jettySize=auto;html=1;exitX=1;exitY=0.5;exitDx=0;exitDy=0;strokeColor=#7EA6E0;" edge="1" parent="WIyWlLk6GJQsqaUBKTNV-1" source="9g6PCNSL1OcQ4zxGsmFJ-50" target="9g6PCNSL1OcQ4zxGsmFJ-11">
          <mxGeometry relative="1" as="geometry" />
        </mxCell>
        <mxCell id="9g6PCNSL1OcQ4zxGsmFJ-64" style="edgeStyle=orthogonalEdgeStyle;rounded=0;orthogonalLoop=1;jettySize=auto;html=1;exitX=1;exitY=0.5;exitDx=0;exitDy=0;entryX=0;entryY=0.5;entryDx=0;entryDy=0;strokeColor=#7EA6E0;" edge="1" parent="WIyWlLk6GJQsqaUBKTNV-1" source="9g6PCNSL1OcQ4zxGsmFJ-3" target="9g6PCNSL1OcQ4zxGsmFJ-11">
          <mxGeometry relative="1" as="geometry">
            <Array as="points">
              <mxPoint x="180" y="265" />
              <mxPoint x="180" y="405" />
            </Array>
          </mxGeometry>
        </mxCell>
        <mxCell id="9g6PCNSL1OcQ4zxGsmFJ-65" style="edgeStyle=orthogonalEdgeStyle;rounded=0;orthogonalLoop=1;jettySize=auto;html=1;exitX=1;exitY=0.5;exitDx=0;exitDy=0;entryX=0;entryY=0.5;entryDx=0;entryDy=0;strokeColor=#7EA6E0;" edge="1" parent="WIyWlLk6GJQsqaUBKTNV-1" source="9g6PCNSL1OcQ4zxGsmFJ-7" target="9g6PCNSL1OcQ4zxGsmFJ-11">
          <mxGeometry relative="1" as="geometry">
            <Array as="points">
              <mxPoint x="180" y="125" />
              <mxPoint x="180" y="405" />
            </Array>
          </mxGeometry>
        </mxCell>
        <mxCell id="9g6PCNSL1OcQ4zxGsmFJ-67" style="edgeStyle=orthogonalEdgeStyle;rounded=0;orthogonalLoop=1;jettySize=auto;html=1;exitX=1;exitY=0.5;exitDx=0;exitDy=0;entryX=0;entryY=0.5;entryDx=0;entryDy=0;strokeColor=#7EA6E0;" edge="1" parent="WIyWlLk6GJQsqaUBKTNV-1" source="9g6PCNSL1OcQ4zxGsmFJ-50" target="9g6PCNSL1OcQ4zxGsmFJ-18">
          <mxGeometry relative="1" as="geometry">
            <Array as="points">
              <mxPoint x="180" y="405" />
              <mxPoint x="180" y="265" />
            </Array>
          </mxGeometry>
        </mxCell>
        <mxCell id="9g6PCNSL1OcQ4zxGsmFJ-68" style="edgeStyle=orthogonalEdgeStyle;rounded=0;orthogonalLoop=1;jettySize=auto;html=1;exitX=1;exitY=0.5;exitDx=0;exitDy=0;entryX=0;entryY=0.5;entryDx=0;entryDy=0;strokeColor=#7EA6E0;" edge="1" parent="WIyWlLk6GJQsqaUBKTNV-1" source="9g6PCNSL1OcQ4zxGsmFJ-7" target="9g6PCNSL1OcQ4zxGsmFJ-18">
          <mxGeometry relative="1" as="geometry">
            <Array as="points">
              <mxPoint x="180" y="125" />
              <mxPoint x="180" y="265" />
            </Array>
          </mxGeometry>
        </mxCell>
      </root>
    </mxGraphModel>
  </diagram>
</mxfile>
